<svg width="640" height="420" viewBox="0 0 640 420" fill="none" xmlns="http://www.w3.org/2000/svg" role="img" aria-labelledby="title desc">
  <title id="title">Chess board preview</title>
  <desc id="desc">A clean chess board graphic for a GitHub profile README.</desc>
  <rect width="640" height="420" rx="28" fill="#0D1117"/>
  <rect x="70" y="50" width="500" height="320" rx="22" fill="#161B22" stroke="#30363D" stroke-width="2"/>
  <text x="320" y="96" text-anchor="middle" font-family="Segoe UI, Arial, sans-serif" font-size="30" font-weight="700" fill="#F0F6FC">Let's Play Chess!</text>
  <text x="320" y="126" text-anchor="middle" font-family="Segoe UI, Arial, sans-serif" font-size="14" fill="#8B949E">Challenge accepted, one move at a time.</text>

  <g transform="translate(160 150)">
    <rect width="320" height="160" rx="10" fill="#21262D" stroke="#30363D" stroke-width="2"/>
    <g font-family="Segoe UI Symbol, Noto Color Emoji, Apple Color Emoji, Arial, sans-serif" font-size="30" text-anchor="middle" dominant-baseline="middle">
      <rect x="12" y="12" width="34" height="34" fill="#F0D9B5"/><rect x="46" y="12" width="34" height="34" fill="#B58863"/><rect x="80" y="12" width="34" height="34" fill="#F0D9B5"/><rect x="114" y="12" width="34" height="34" fill="#B58863"/><rect x="148" y="12" width="34" height="34" fill="#F0D9B5"/><rect x="182" y="12" width="34" height="34" fill="#B58863"/><rect x="216" y="12" width="34" height="34" fill="#F0D9B5"/><rect x="250" y="12" width="34" height="34" fill="#B58863"/>
      <rect x="12" y="46" width="34" height="34" fill="#B58863"/><rect x="46" y="46" width="34" height="34" fill="#F0D9B5"/><rect x="80" y="46" width="34" height="34" fill="#B58863"/><rect x="114" y="46" width="34" height="34" fill="#F0D9B5"/><rect x="148" y="46" width="34" height="34" fill="#B58863"/><rect x="182" y="46" width="34" height="34" fill="#F0D9B5"/><rect x="216" y="46" width="34" height="34" fill="#B58863"/><rect x="250" y="46" width="34" height="34" fill="#F0D9B5"/>
      <rect x="12" y="80" width="34" height="34" fill="#F0D9B5"/><rect x="46" y="80" width="34" height="34" fill="#B58863"/><rect x="80" y="80" width="34" height="34" fill="#F0D9B5"/><rect x="114" y="80" width="34" height="34" fill="#B58863"/><rect x="148" y="80" width="34" height="34" fill="#F0D9B5"/><rect x="182" y="80" width="34" height="34" fill="#B58863"/><rect x="216" y="80" width="34" height="34" fill="#F0D9B5"/><rect x="250" y="80" width="34" height="34" fill="#B58863"/>
      <rect x="12" y="114" width="34" height="34" fill="#B58863"/><rect x="46" y="114" width="34" height="34" fill="#F0D9B5"/><rect x="80" y="114" width="34" height="34" fill="#B58863"/><rect x="114" y="114" width="34" height="34" fill="#F0D9B5"/><rect x="148" y="114" width="34" height="34" fill="#B58863"/><rect x="182" y="114" width="34" height="34" fill="#F0D9B5"/><rect x="216" y="114" width="34" height="34" fill="#B58863"/><rect x="250" y="114" width="34" height="34" fill="#F0D9B5"/>
      <text x="29" y="29">♜</text><text x="63" y="29">♞</text><text x="97" y="29">♝</text><text x="131" y="29">♛</text><text x="165" y="29">♚</text><text x="199" y="29">♝</text><text x="233" y="29">♞</text><text x="267" y="29">♜</text>
      <text x="29" y="63">♟</text><text x="63" y="63">♟</text><text x="97" y="63">♟</text><text x="131" y="63">♟</text><text x="165" y="63">♟</text><text x="199" y="63">♟</text><text x="233" y="63">♟</text><text x="267" y="63">♟</text>
      <text x="29" y="97" fill="#161B22">♙</text><text x="63" y="97" fill="#161B22">♙</text><text x="97" y="97" fill="#161B22">♙</text><text x="131" y="97" fill="#161B22">♙</text><text x="165" y="97" fill="#161B22">♙</text><text x="199" y="97" fill="#161B22">♙</text><text x="233" y="97" fill="#161B22">♙</text><text x="267" y="97" fill="#161B22">♙</text>
      <text x="29" y="131" fill="#161B22">♖</text><text x="63" y="131" fill="#161B22">♘</text><text x="97" y="131" fill="#161B22">♗</text><text x="131" y="131" fill="#161B22">♕</text><text x="165" y="131" fill="#161B22">♔</text><text x="199" y="131" fill="#161B22">♗</text><text x="233" y="131" fill="#161B22">♘</text><text x="267" y="131" fill="#161B22">♖</text>
    </g>
  </g>

  <text x="320" y="342" text-anchor="middle" font-family="Segoe UI, Arial, sans-serif" font-size="13" fill="#8B949E">♔ Think ahead • Build smarter • Keep improving ♚</text>
</svg>
